<?xml version="1.0" encoding="utf-8"?>
<!-- Generator: Adobe Illustrator 17.1.0, SVG Export Plug-In . SVG Version: 6.00 Build 0)  -->
<!DOCTYPE svg PUBLIC "-//W3C//DTD SVG 1.1//EN" "http://www.w3.org/Graphics/SVG/1.1/DTD/svg11.dtd">
<svg version="1.1" id="Layer_1" xmlns="http://www.w3.org/2000/svg" xmlns:xlink="http://www.w3.org/1999/xlink" x="0px" y="0px"
	 viewBox="0 0 240 40" enable-background="new 0 0 240 40" xml:space="preserve">
<g>
	<path fill="#57C4CF" d="M172.1,8.8c-1.8,0-3.2,1.5-3.2,3.2v23.8c0,1.8,1.5,3.2,3.2,3.2c1.8,0,3.2-1.5,3.2-3.2V12.1
		C175.3,10.3,173.9,8.8,172.1,8.8"/>
	<path fill="#57C4CF" d="M172.1,0.2c-0.9,0-1.7,0.3-2.3,0.9c-0.6,0.6-0.9,1.4-0.9,2.3c0,0.9,0.3,1.7,0.9,2.3
		c0.6,0.6,1.4,0.9,2.3,0.9c0.9,0,1.7-0.3,2.3-0.9c0.6-0.6,0.9-1.4,0.9-2.3c0-0.9-0.3-1.7-0.9-2.3C173.7,0.5,173,0.2,172.1,0.2"/>
	<path fill="#57C4CF" d="M35.5,0.2c-0.9,0-1.7,0.3-2.3,0.9c-0.6,0.6-0.9,1.4-0.9,2.3c0,0.9,0.3,1.7,0.9,2.3c0.6,0.6,1.4,0.9,2.3,0.9
		c0.9,0,1.7-0.3,2.3-0.9c0.6-0.6,0.9-1.4,0.9-2.3c0-0.9-0.3-1.7-0.9-2.3C37.1,0.5,36.4,0.2,35.5,0.2"/>
	<path fill="#57C4CF" d="M10.1,10.6c-3.9,1.5-6.7,4.2-8.3,8.1c-1.6,3.8-1.7,7.7-0.1,11.6c1.6,3.9,4.2,6.7,8.1,8.3
		c3.8,1.6,7.7,1.7,11.6,0.1c3.9-1.6,6.7-4.2,8.3-8.1l0,0c0,0,1.2-3.3-1.8-4.3C25,25.4,23.7,28,23.7,28c0,0,0,0,0,0l0,0
		c-0.8,1.8-2.1,3.4-3.9,4.2c-2.5,1.3-5,1.4-7.5,0.3C10.8,32,9.6,31,8.8,29.8c0,0,0-0.1,0-0.1l19.8-7.9c1.1-0.4,1.7-1.7,1.2-2.7
		c0,0,0,0,0-0.1c-1.6-3.9-4.2-6.7-8.1-8.3C17.8,9.1,14,9,10.1,10.6 M21,17.9L7.2,23.4c0,0-0.1,0-0.1-0.1c0.1-0.5,0.2-1,0.4-1.6
		c0.9-2.5,3-4.5,5.6-5.3c2-0.6,4-0.5,6,0.3C19.8,17,20.4,17.4,21,17.9C21,17.8,21,17.9,21,17.9"/>
	<path fill="#57C4CF" d="M29.9,29.3c0,1.8-1.5,3.3-3.3,3.3c-1.8,0-3.3-1.5-3.3-3.3c0-1.8,1.5-3.3,3.3-3.3
		C28.4,26,29.9,27.5,29.9,29.3"/>
	<path fill="#57C4CF" d="M189.3,9.8c-3.9,1.6-6.7,4.2-8.3,8.1c-1.6,3.8-1.7,7.7-0.1,11.6c1.5,3.9,4.2,6.7,8.1,8.3
		c3.8,1.6,7.7,1.7,11.6,0.1c3.9-1.5,6.7-4.2,8.3-8.1l0,0c0,0,1.2-3.3-1.8-4.3c-2.8-0.9-4.2,1.7-4.2,1.7c0,0,0,0,0,0l0,0
		c-0.8,1.8-2.1,3.4-3.9,4.2c-2.5,1.3-5,1.4-7.5,0.3c-1.5-0.6-2.6-1.6-3.5-2.8c0,0,0-0.1,0-0.1l19.8-7.9c1.1-0.4,1.7-1.7,1.2-2.7
		c0,0,0,0,0-0.1c-1.6-3.9-4.2-6.7-8.1-8.3C197,8.3,193.1,8.3,189.3,9.8 M200.1,17.1l-13.7,5.5c0,0-0.1,0-0.1-0.1
		c0.1-0.5,0.2-1,0.4-1.6c0.9-2.5,3-4.5,5.6-5.3c2-0.6,4-0.5,6,0.3C199,16.3,199.6,16.6,200.1,17.1C200.2,17.1,200.2,17.1,200.1,17.1
		"/>
	<path fill="#57C4CF" d="M209.2,28.4c0,1.8-1.5,3.3-3.3,3.3c-1.8,0-3.3-1.5-3.3-3.3c0-1.8,1.5-3.3,3.3-3.3
		C207.7,25.2,209.2,26.6,209.2,28.4"/>
	<path fill="#57C4CF" d="M67.2,30.4c-2.6-1.9-4.4,0.4-4.4,0.4l0,0c-1.7,1.7-3.7,2.5-6.1,2.5c-2.4,0-4.4-0.8-6.1-2.5
		c-1.7-1.7-2.5-3.7-2.5-6.1c0-2.4,0.8-4.4,2.5-6.1c1.7-1.7,3.7-2.5,6.1-2.5c2.4,0,4.4,0.8,6.1,2.5l0,0c0,0,2.3,2.2,4.7,0.1
		c2.3-2.1-0.1-4.6-0.1-4.6l0,0c-2.9-2.9-6.5-4.4-10.7-4.4c-4.2,0-7.8,1.5-10.7,4.4c-2.9,2.9-4.4,6.5-4.4,10.7s1.5,7.8,4.4,10.7
		c2.9,2.9,6.5,4.4,10.7,4.4c4.2,0,7.8-1.5,10.7-4.4l0,0C67.3,35.4,69.9,32.3,67.2,30.4"/>
	<path fill="#57C4CF" d="M68.6,16.5c0,1.8-1.5,3.3-3.3,3.3c-1.8,0-3.3-1.5-3.3-3.3c0-1.8,1.5-3.3,3.3-3.3
		C67.1,13.2,68.6,14.7,68.6,16.5"/>
	<path fill="#57C4CF" d="M163.9,13.3L163.9,13.3c-3-3-6.6-4.5-10.7-4.5c-4.2,0-7.8,1.5-10.7,4.4c-2.9,2.9-4.4,6.5-4.4,10.7v12
		c0,1.7,1.4,3.1,3.1,3.1c1.9,0,3.4-1.5,3.4-3.4V24c0-2.2,0.8-4.3,2.2-5.9c2-2.1,4.4-3,7.3-2.8c2,0.2,3.8,1.1,5.2,2.5l0,0
		c0,0,2.6,2.4,4.8,0.2C166.7,15.7,163.9,13.3,163.9,13.3"/>
	<path fill="#57C4CF" d="M162.1,12.6c-0.9,0-1.7,0.3-2.3,0.9c-0.6,0.6-0.9,1.4-0.9,2.3c0,0.9,0.3,1.7,0.9,2.3
		c0.6,0.6,1.4,0.9,2.3,0.9c0.9,0,1.7-0.3,2.3-0.9c0.6-0.6,0.9-1.4,0.9-2.3c0-0.9-0.3-1.7-0.9-2.3C163.7,13,163,12.6,162.1,12.6"/>
	<path fill="#57C4CF" d="M238.1,13.3L238.1,13.3c-3-3-6.6-4.5-10.7-4.5c-4.2,0-7.8,1.5-10.7,4.4c-2.9,2.9-4.4,6.5-4.4,10.7v12
		c0,1.7,1.4,3.1,3.1,3.1c1.9,0,3.4-1.5,3.4-3.4V24c0-2.2,0.8-4.3,2.2-5.9c2-2.1,4.4-3,7.3-2.8c2,0.2,3.8,1.1,5.2,2.5l0,0
		c0,0,2.6,2.4,4.8,0.2C240.9,15.7,238.1,13.3,238.1,13.3"/>
	<path fill="#57C4CF" d="M236.2,12.6c-0.9,0-1.7,0.3-2.3,0.9c-0.6,0.6-0.9,1.4-0.9,2.3c0,0.9,0.3,1.7,0.9,2.3
		c0.6,0.6,1.4,0.9,2.3,0.9c0.9,0,1.7-0.3,2.3-0.9c0.6-0.6,0.9-1.4,0.9-2.3c0-0.9-0.3-1.7-0.9-2.3C237.9,13,237.1,12.6,236.2,12.6"/>
	<path fill="#57C4CF" d="M85.4,9.6c-4.2,0-7.8,1.5-10.7,4.4c-2.9,2.9-4.4,6.5-4.4,10.7c0,4.2,1.5,7.8,4.4,10.7
		c2.9,2.9,6.5,4.4,10.7,4.4c4.2,0,7.8-1.5,10.7-4.4c2.9-2.9,4.4-6.5,4.4-10.7c0-4.2-1.5-7.8-4.4-10.7C93.1,11,89.5,9.6,85.4,9.6
		 M91.5,30.8c-1.7,1.7-3.7,2.5-6.1,2.5c-2.4,0-4.4-0.8-6.1-2.5c-1.7-1.7-2.5-3.7-2.5-6.1c0-2.4,0.8-4.4,2.5-6.1
		c1.7-1.7,3.7-2.5,6.1-2.5c2.4,0,4.4,0.8,6.1,2.5c1.7,1.7,2.5,3.7,2.5,6.1C94,27.1,93.2,29.1,91.5,30.8"/>
	<path fill="#57C4CF" d="M88.6,24.6c0,1.8-1.5,3.3-3.3,3.3s-3.3-1.5-3.3-3.3c0-1.8,1.5-3.3,3.3-3.3S88.6,22.8,88.6,24.6"/>
	<path fill="#57C4CF" d="M130.8,9.6h-0.2c-1.8,0-3.3,1.5-3.3,3.3v11.6c0,2.4-0.9,4.7-2.6,6.4c-1.4,1.4-3.1,2.2-5.1,2.4
		c-3,0.3-6.1-1-8-3.4c-1.1-1.5-1.7-3.2-1.7-5.1v-12c0-1.7-1.4-3.2-3.2-3.2c-1.8,0-3.3,1.5-3.3,3.3v11.8c0,4.2,1.5,7.8,4.4,10.7
		c2.9,2.9,6.5,4.4,10.7,4.4c4.2,0,7.8-1.5,10.7-4.4c2.9-2.9,4.4-6.5,4.4-10.7V12.5C133.8,10.9,132.4,9.6,130.8,9.6"/>
	<path fill="#57C4CF" d="M133.9,12.7c0,1.8-1.5,3.3-3.3,3.3c-1.8,0-3.3-1.5-3.3-3.3c0-1.8,1.5-3.3,3.3-3.3
		C132.4,9.4,133.9,10.8,133.9,12.7"/>
</g>
</svg>
